# xmcd CD database file
#
# Track frame offsets:
#	150
#	21227
#	37425
#	55237
#	73862
#	89165
#	108230
#	127672
#	144042
#	170615
#	185267
#	202620
#	221925
#	240167
#	259060
#
# Disc length: 3677 seconds
#
# Revision: 0
# Processed by: cddbd v1.5.1PL0 Copyright (c) Steve Scherf et al.
# Submitted via: CDex 1.51
#
DISCID=d40e5b0f
DTITLE=オムニバス - ぽ1980
DYEAR=1900
DGENRE=JPop
TTITLE0=恋／松山 千春
TTITLE1=いまのキミはピカピカに光って／斉藤 哲夫
TTITLE2=街が泣いてた／伊丹哲也　＆　Ｓｉｄｅ　Ｂｙ　Ｓｉｄｅ
TTITLE3=ニートな午後３時／松原 みき
TTITLE4=ごめんね　Ｄａｒｌｉｎｇ／岩崎 良美
TTITLE5=完全無欠のロックンローラー／アラジン
TTITLE6=ダンスはうまく踊れない／高樹 澪
TTITLE7=夏をあきらめて／研 ナオコ
TTITLE8=花ぬすびと／明日香
TTITLE9=さよならの物語／堀 ちえみ
TTITLE10=時をかける少女／原田 知世
TTITLE11=メリーアン／ＴＨＥ　ＡＬＦＥＥ
TTITLE12=星屑のステージ／チェッカーズ
TTITLE13=ふられ気分でＲｏｃｋ’ｎ’Ｒｏｌｌ／ＴＯＭ☆ＣＡＴ
TTITLE14=セーラー服を脱がさないで／おニャン子クラブ
EXTD=
EXTT0=
EXTT1=
EXTT2=
EXTT3=
EXTT4=
EXTT5=
EXTT6=
EXTT7=
EXTT8=
EXTT9=
EXTT10=
EXTT11=
EXTT12=
EXTT13=
EXTT14=
PLAYORDER=
